<svg width="18" height="18" viewBox="0 0 18 18" fill="none" xmlns="http://www.w3.org/2000/svg">
<g clip-path="url(#clip0_9_379)">
<path d="M17.6485 14.1429L18 17.2868C18.0201 17.4743 17.9665 17.6417 17.8393 17.7891C17.7121 17.9297 17.5514 18 17.3572 18H0.642877C0.44868 18 0.287966 17.9297 0.160734 17.7891C0.0335019 17.6417 -0.0200695 17.4743 1.98168e-05 17.2868L0.351582 14.1429H17.6485ZM16.7143 5.7154L17.5781 13.5H0.421895L1.28573 5.7154C1.30582 5.55469 1.37614 5.41908 1.49667 5.30859C1.61721 5.1981 1.76118 5.14286 1.92859 5.14286H4.50002V6.42857C4.50002 6.78348 4.62558 7.0865 4.87669 7.33761C5.12781 7.58873 5.43082 7.71429 5.78573 7.71429C6.14065 7.71429 6.44366 7.58873 6.69477 7.33761C6.94589 7.0865 7.07145 6.78348 7.07145 6.42857V5.14286H10.9286V6.42857C10.9286 6.78348 11.0541 7.0865 11.3053 7.33761C11.5564 7.58873 11.8594 7.71429 12.2143 7.71429C12.5692 7.71429 12.8722 7.58873 13.1233 7.33761C13.3745 7.0865 13.5 6.78348 13.5 6.42857V5.14286H16.0714C16.2389 5.14286 16.3828 5.1981 16.5034 5.30859C16.6239 5.41908 16.6942 5.55469 16.7143 5.7154ZM12.8572 3.85714V6.42857C12.8572 6.60268 12.7935 6.75335 12.6663 6.88058C12.5391 7.00781 12.3884 7.07143 12.2143 7.07143C12.0402 7.07143 11.8895 7.00781 11.7623 6.88058C11.6351 6.75335 11.5714 6.60268 11.5714 6.42857V3.85714C11.5714 3.14732 11.3203 2.54129 10.8181 2.03906C10.3159 1.53683 9.70984 1.28571 9.00002 1.28571C8.2902 1.28571 7.68417 1.53683 7.18194 2.03906C6.67971 2.54129 6.42859 3.14732 6.42859 3.85714V6.42857C6.42859 6.60268 6.36498 6.75335 6.23774 6.88058C6.11051 7.00781 5.95984 7.07143 5.78573 7.07143C5.61163 7.07143 5.46096 7.00781 5.33373 6.88058C5.20649 6.75335 5.14288 6.60268 5.14288 6.42857V3.85714C5.14288 2.79241 5.51955 1.88337 6.2729 1.13002C7.02625 0.376674 7.93529 2.38419e-07 9.00002 2.38419e-07C10.0648 2.38419e-07 10.9738 0.376674 11.7271 1.13002C12.4805 1.88337 12.8572 2.79241 12.8572 3.85714Z" fill="#F5F5F5"/>
</g>
<defs>
<clipPath id="clip0_9_379">
<rect width="18" height="18" fill="white" transform="matrix(1 0 0 -1 0 18)"/>
</clipPath>
</defs>
</svg>
