<svg id="Layer_1" enable-background="new 0 0 491.5 491.5" height="512" viewBox="0 0 491.5 491.5" width="512" xmlns="http://www.w3.org/2000/svg"><g id="Layer_x0020_1"><g id="_297813272" clip-rule="evenodd" fill-rule="evenodd"><path id="_297761240" d="m354.4 270.6c-1.6 0-3.2-.8-4.1-2.4l-36.8-63.7c-2.2-3.7-2.7-8.1-1.6-12.3s3.8-7.7 7.5-9.9 8.1-2.7 12.3-1.6 7.7 3.8 9.8 7.5l36.8 63.7c1.3 2.3.5 5.2-1.7 6.5-2.3 1.3-5.2.5-6.5-1.7l-36.7-63.7c-.9-1.5-2.3-2.7-4.1-3.1-1.7-.5-3.6-.2-5.1.7s-2.7 2.4-3.1 4.1c-.5 1.7-.2 3.6.7 5.1l36.8 63.7c1.3 2.3.5 5.2-1.7 6.5-.9.4-1.7.6-2.5.6z"/><path id="_297760712" d="m374.3 259.1c-1.6 0-3.2-.8-4.1-2.4l-14.5-25c-4.5-7.7-1.8-17.7 5.9-22.2s17.7-1.8 22.2 5.9l14.5 25c1.3 2.3.5 5.2-1.7 6.5-2.3 1.3-5.2.5-6.5-1.7l-14.5-25c-1.9-3.2-6-4.3-9.2-2.5-3.2 1.9-4.3 6-2.5 9.2l14.5 25c1.3 2.3.5 5.2-1.7 6.5-.8.5-1.6.7-2.4.7z"/><path id="_297761096" d="m394.2 247.6c-1.6 0-3.2-.8-4.1-2.4l-14.5-25c-4.5-7.7-1.8-17.7 5.9-22.2 3.7-2.2 8.1-2.7 12.3-1.6s7.7 3.8 9.8 7.5l14.5 25c1.3 2.3.5 5.2-1.7 6.5-2.3 1.3-5.2.5-6.5-1.7l-14.5-25c-.9-1.5-2.3-2.7-4.1-3.1-1.8-.5-3.6-.2-5.1.7-3.2 1.9-4.3 6-2.5 9.2l14.5 25c1.3 2.3.5 5.2-1.7 6.5-.7.4-1.5.6-2.3.6z"/><path id="_297760640" d="m389.6 324.9c-15.7 0-32-14.5-44.6-25.8-2.5-2.2-4.8-4.3-6.9-6l-30.7-17.7c-8.7-5-11.7-16.2-6.7-24.9s16.2-11.7 24.9-6.7l31 17.9c2.3 1.3 3 4.2 1.7 6.5s-4.2 3-6.5 1.7l-31-17.9c-4.2-2.4-9.5-1-12 3.2-2.4 4.2-1 9.5 3.2 12l31 17.9c.2.1.5.3.7.5 2.3 1.9 4.8 4.1 7.4 6.5 13.7 12.2 32.5 28.9 45.5 21.4l45.6-26.3c10.2-5.9 13.8-19 7.9-29.3l-35-60.6c-.9-1.6-2.4-2.7-4.1-3.1-1.7-.5-3.6-.2-5.1.7-3.2 1.9-4.3 6-2.5 9.2l14.5 25c1.3 2.3.5 5.2-1.7 6.5-2.3 1.3-5.2.5-6.5-1.7l-14.5-25c-4.5-7.7-1.8-17.7 5.9-22.2 3.7-2.2 8.1-2.7 12.3-1.6s7.7 3.8 9.8 7.5l35 60.6c8.5 14.8 3.4 33.7-11.3 42.2l-45.6 26.3c-3.6 2.2-7.6 3.2-11.7 3.2z"/><path id="_297760904" d="m448.8 250.3c-2.6 0-4.7-2.1-4.7-4.7v-127.7h-65.8c-2.6 0-4.7-2.1-4.7-4.7s2.1-4.7 4.7-4.7h70.6c2.6 0 4.7 2.1 4.7 4.7v132.5c-.1 2.5-2.2 4.6-4.8 4.6zm0 124.3h-415.3c-2.6 0-4.7-2.1-4.7-4.7v-256.7c0-2.6 2.1-4.7 4.7-4.7h70.6c2.6 0 4.7 2.1 4.7 4.7s-2.1 4.7-4.7 4.7h-65.8v247.2h405.8v-76.6c0-2.6 2.1-4.7 4.7-4.7s4.7 2.1 4.7 4.7v81.3c0 2.6-2.1 4.8-4.7 4.8z"/><path id="_297760568" d="m424.6 208.4c-2.6 0-4.7-2.1-4.7-4.7v-61.6h-41.6c-2.6 0-4.7-2.1-4.7-4.7s2.1-4.7 4.7-4.7h46.3c2.6 0 4.7 2.1 4.7 4.7v66.3c0 2.6-2.1 4.7-4.7 4.7zm0 141.9h-366.8c-2.6 0-4.7-2.1-4.7-4.7v-208.3c0-2.6 2.1-4.7 4.7-4.7h46.4c2.6 0 4.7 2.1 4.7 4.7s-2.1 4.7-4.7 4.7h-41.6v198.8h357.4v-37.8c0-2.6 2.1-4.7 4.7-4.7s4.7 2.1 4.7 4.7v42.7c-.1 2.5-2.2 4.6-4.8 4.6z"/><path id="_297760136" d="m269.6 436.6h-56.9c-2.6 0-4.7-2.1-4.7-4.7v-62.1c0-2.6 2.1-4.7 4.7-4.7s4.7 2.1 4.7 4.7v57.3h47.4v-57.3c0-2.6 2.1-4.7 4.7-4.7s4.7 2.1 4.7 4.7v62.1c.2 2.6-2 4.7-4.6 4.7z"/><path id="_297760448" d="m337.7 458.1h-193.1c-1.6 0-3.1-.8-4-2.2s-1-3-.4-4.5l14.5-32.7c.7-1.6 2.2-2.7 3.9-2.8l53.6-4.3c2.6-.2 4.9 1.7 5.1 4.3s-1.7 4.9-4.3 5.1l-50.8 4.1-10.4 23.5h178.5l-10.3-23.4-50.8-4.1c-2.6-.2-4.6-2.5-4.3-5.1.2-2.6 2.5-4.5 5.1-4.3l53.6 4.3c1.7.1 3.2 1.2 3.9 2.8l14.5 32.7c.7 1.5.5 3.2-.4 4.5-.8 1.3-2.3 2.1-3.9 2.1z"/><path id="_297760184" d="m373.3 319.8h-269.2c-2.6 0-4.7-2.1-4.7-4.7v-276.9c0-2.6 2.1-4.7 4.7-4.7h274.1c2.6 0 4.7 2.1 4.7 4.7v174.9c0 2.6-2.1 4.7-4.7 4.7s-4.7-2.1-4.7-4.7v-170.1h-264.7v267.4h264.5c2.6 0 4.7 2.1 4.7 4.7.1 2.5-2.1 4.7-4.7 4.7z"/><path id="_297760208" d="m378.2 92.9h-274.1c-2.6 0-4.7-2.1-4.7-4.7s2.1-4.7 4.7-4.7h274.1c2.6 0 4.7 2.1 4.7 4.7.1 2.6-2 4.7-4.7 4.7z"/><path id="_297760112" d="m356.2 67.3h-18.5c-2.6 0-4.7-2.1-4.7-4.7s2.1-4.7 4.7-4.7h18.5c2.6 0 4.7 2.1 4.7 4.7s-2.1 4.7-4.7 4.7z"/><path id="_297760352" d="m319.1 67.3h-18.5c-2.6 0-4.7-2.1-4.7-4.7s2.1-4.7 4.7-4.7h18.5c2.6 0 4.7 2.1 4.7 4.7s-2.1 4.7-4.7 4.7z"/><path id="_297760520" d="m282 67.3h-18.5c-2.6 0-4.7-2.1-4.7-4.7s2.1-4.7 4.7-4.7h18.5c2.6 0 4.7 2.1 4.7 4.7s-2.1 4.7-4.7 4.7z"/><path id="_297760280" d="m208.4 67.3h-82.3c-2.6 0-4.7-2.1-4.7-4.7s2.1-4.7 4.7-4.7h82.3c2.6 0 4.7 2.1 4.7 4.7.1 2.6-2 4.7-4.7 4.7z"/><path id="_297760256" d="m136.6 132.9h19v-19.1h-19zm23.8 9.4h-28.5c-2.6 0-4.7-2.1-4.7-4.7v-28.6c0-2.6 2.1-4.7 4.7-4.7h28.5c2.6 0 4.7 2.1 4.7 4.7v28.6c0 2.6-2.1 4.7-4.7 4.7z"/><path id="_297813224" d="m136.6 185.1h19v-19.1h-19zm23.8 9.5h-28.5c-2.6 0-4.7-2.1-4.7-4.7v-28.6c0-2.6 2.1-4.7 4.7-4.7h28.5c2.6 0 4.7 2.1 4.7 4.7v28.6c0 2.5-2.1 4.7-4.7 4.7z"/><path id="_297824960" d="m136.6 237.3h19v-19.1h-19zm23.8 9.5h-28.5c-2.6 0-4.7-2.1-4.7-4.7v-28.6c0-2.6 2.1-4.7 4.7-4.7h28.5c2.6 0 4.7 2.1 4.7 4.7v28.6c0 2.5-2.1 4.7-4.7 4.7z"/><path id="_297812672" d="m136.6 289.5h19v-19.1h-19zm23.8 9.5h-28.5c-2.6 0-4.7-2.1-4.7-4.7v-28.6c0-2.6 2.1-4.7 4.7-4.7h28.5c2.6 0 4.7 2.1 4.7 4.7v28.6c0 2.6-2.1 4.7-4.7 4.7z"/><path id="_297838400" d="m350.4 118.2h-164.8c-2.6 0-4.7-2.1-4.7-4.7s2.1-4.7 4.7-4.7h164.9c2.6 0 4.7 2.1 4.7 4.7s-2.1 4.7-4.8 4.7z"/><path id="_297832568" d="m268 137.9h-82.4c-2.6 0-4.7-2.1-4.7-4.7s2.1-4.7 4.7-4.7h82.4c2.6 0 4.7 2.1 4.7 4.7s-2.1 4.7-4.7 4.7z"/><path id="_297827888" d="m279.9 274.8h-94.4c-2.6 0-4.7-2.1-4.7-4.7s2.1-4.7 4.7-4.7h94.4c2.6 0 4.7 2.1 4.7 4.7.1 2.6-2.1 4.7-4.7 4.7z"/><path id="_297823688" d="m268 294.5h-82.4c-2.6 0-4.7-2.1-4.7-4.7s2.1-4.7 4.7-4.7h82.4c2.6 0 4.7 2.1 4.7 4.7s-2.1 4.7-4.7 4.7z"/><path id="_297819704" d="m293 222.6h-107.4c-2.6 0-4.7-2.1-4.7-4.7s2.1-4.7 4.7-4.7h107.4c2.6 0 4.7 2.1 4.7 4.7s-2.1 4.7-4.7 4.7z"/><path id="_297815552" d="m268 242.3h-82.4c-2.6 0-4.7-2.1-4.7-4.7s2.1-4.7 4.7-4.7h82.4c2.6 0 4.7 2.1 4.7 4.7s-2.1 4.7-4.7 4.7z"/><path id="_297813032" d="m350.4 170.4h-164.8c-2.6 0-4.7-2.1-4.7-4.7s2.1-4.7 4.7-4.7h164.9c2.6 0 4.7 2.1 4.7 4.7s-2.1 4.7-4.8 4.7z"/><path id="_297813200" d="m268 190.1h-82.4c-2.6 0-4.7-2.1-4.7-4.7s2.1-4.7 4.7-4.7h82.4c2.6 0 4.7 2.1 4.7 4.7s-2.1 4.7-4.7 4.7z"/></g></g></svg>