<svg clip-rule="evenodd" fill-rule="evenodd" height="512" image-rendering="optimizeQuality" shape-rendering="geometricPrecision" text-rendering="geometricPrecision" viewBox="0 0 512 512" width="512" xmlns="http://www.w3.org/2000/svg"><g id="Layer_x0020_1"><g id="_283551576"><g><g id="_211080136"><path d="m469 101c-2 0-5-2-6-5l-25-83h-364l-25 83c-1 3-5 5-8 4s-5-4-4-7l27-88c1-3 3-4 6-4h372c3 0 5 1 6 4l27 88c1 3-1 6-4 7-1 0-1 1-2 1z"/></g><g id="_211081528"><path d="m86 190c-27 0-49-22-49-48v-47c0-4 3-6 6-6h85c3 0 6 2 6 6v47c0 26-22 48-48 48zm-37-89v41c0 20 16 36 37 36 20 0 36-16 36-36v-41z"/></g><g id="_211081816"><path d="m171 190c-27 0-49-22-49-48v-47c0-4 3-6 6-6h85c4 0 6 2 6 6v47c0 26-21 48-48 48zm-37-89v41c0 20 17 36 37 36 20 0 36-16 36-36v-41z"/></g><g id="_211081768"><path d="m256 190c-27 0-49-22-49-48v-47c0-4 3-6 6-6h86c3 0 6 2 6 6v47c0 26-22 48-49 48zm-37-89v41c0 20 17 36 37 36 20 0 37-16 37-36v-41z"/></g><g id="_211082968"><path d="m341 190c-27 0-48-22-48-48v-47c0-4 2-6 6-6h85c3 0 6 2 6 6v47c0 26-22 48-49 48zm-36-89v41c0 20 16 36 36 36 20 0 37-16 37-36v-41z"/></g><g id="_211082392"><path d="m426 190c-26 0-48-22-48-48v-47c0-4 3-6 6-6h85c3 0 6 2 6 6v47c0 26-22 48-49 48zm-36-89v41c0 20 16 36 36 36 21 0 37-16 37-36v-41z"/></g><g id="_211082848"><path d="m468 511h-424c-3 0-6-2-6-6 0-3 3-6 6-6h424c3 0 6 3 6 6 0 4-3 6-6 6z"/></g><g id="_211081504"><path d="m436 511h-360c-3 0-6-2-6-6v-322c0-3 3-6 6-6s6 3 6 6v316h348v-316c0-3 3-6 6-6s6 3 6 6v322c0 4-3 6-6 6z"/></g><g><g id="_211083328"><path d="m405 415h-298c-3 0-6-3-6-6v-168c0-3 3-6 6-6h298c3 0 6 3 6 6v168c0 3-3 6-6 6zm-292-12h286v-156h-286z"/></g><g id="_211083376"><path d="m325 415h-138c-3 0-6-3-6-6 0-34 28-62 62-62h26c34 0 62 28 62 62 0 3-3 6-6 6zm-131-12h124c-3-25-24-44-49-44h-26c-25 0-46 19-49 44z"/></g><g id="_211083592"><path d="m256 340c-20 0-37-17-37-37s17-37 37-37 37 17 37 37-17 37-37 37zm0-62c-14 0-25 11-25 25s11 25 25 25 25-11 25-25-11-25-25-25z"/></g></g><g id="_211083232"><path d="m203 57c-41 0-72 0-75-1-3 0-5-3-5-7 1-3 4-5 7-5 8 1 155 1 253 0 3 0 6 3 6 6 0 4-3 6-6 6-26 0-115 1-180 1z"/></g></g></g></g></svg>